<svg width="40" height="40" viewBox="0 0 40 40" fill="none" xmlns="http://www.w3.org/2000/svg">
<path d="M27.079 22.829C26.4881 22.2477 26.1488 21.4578 26.134 20.629V18.829C26.133 17.3521 25.6212 15.9211 24.6855 14.7785C23.7497 13.6359 22.4477 12.8521 21 12.56V11.1C21 10.8348 20.8946 10.5804 20.7071 10.3929C20.5196 10.2053 20.2652 10.1 20 10.1C19.7348 10.1 19.4804 10.2053 19.2929 10.3929C19.1054 10.5804 19 10.8348 19 11.1V12.56C17.5518 12.8522 16.2494 13.6365 15.3136 14.7797C14.3778 15.9229 13.8664 17.3546 13.866 18.832V20.418C13.8661 20.4886 13.8738 20.559 13.889 20.628H13.866C13.8512 21.4568 13.5119 22.2467 12.921 22.828C12.3842 23.3542 12.0569 24.0575 12 24.807C12 25.35 12 27 13.538 27H15.746C16.0358 27.9003 16.6039 28.6855 17.3683 29.2424C18.1327 29.7994 19.0542 30.0995 20 30.0995C20.9458 30.0995 21.8673 29.7994 22.6317 29.2424C23.3961 28.6855 23.9642 27.9003 24.254 27H26.462C28 27 28 25.35 28 24.807C27.9428 24.0578 27.6156 23.3549 27.079 22.829ZM20 28.1C19.5932 28.0995 19.1928 27.9989 18.834 27.807C18.4753 27.6152 18.1693 27.338 17.943 27H22.057C21.8307 27.338 21.5247 27.6152 21.166 27.807C20.8072 27.9989 20.4068 28.0995 20 28.1ZM26 25H14C14 24.933 14 24.864 14 24.807C14.1063 24.54 14.2663 24.2976 14.47 24.095C15.3557 23.1579 15.8556 21.9213 15.87 20.632V18.832C15.8681 17.7135 16.2954 16.637 17.0638 15.8243C17.8322 15.0116 18.8832 14.5247 20 14.464C21.1175 14.5237 22.1695 15.0101 22.9387 15.8229C23.708 16.6358 24.1359 17.7129 24.134 18.832V20.418C24.1342 20.4885 24.1416 20.5589 24.156 20.628H24.134C24.1484 21.9173 24.6483 23.1539 25.534 24.091C25.7377 24.2936 25.8977 24.536 26.004 24.803C26 24.864 26 24.933 26 25Z" fill="white"/>
</svg>
